HIERARCHY
ROOT newVegas:Hips
{
	OFFSET 0.000000 96.479958 0.000000
	CHANNELS 6 Xposition Yposition Zposition Xrotation Yrotation Zrotation
	JOINT newVegas:Pelvis
	{
		OFFSET 0.000000 0.000000 0.000000
		CHANNELS 3 Xrotation Yrotation Zrotation
		JOINT newVegas:LeftUpLeg
		{
			OFFSET 18.735201 -5.666702 -4.541200
			CHANNELS 3 Xrotation Yrotation Zrotation
			JOINT newVegas:LeftLeg
			{
				OFFSET -0.021200 -31.938179 0.493100
				CHANNELS 3 Xrotation Yrotation Zrotation
				JOINT newVegas:LeftFoot
				{
					OFFSET 0.021200 -31.938179 -4.336299
					CHANNELS 3 Xrotation Yrotation Zrotation
					JOINT newVegas:LeftToeBase
					{
						OFFSET 0.943001 -26.722000 15.023500
						CHANNELS 3 Xrotation Yrotation Zrotation
						End Site
						{
							OFFSET 0.000000 30.670183 0.000000
						}
					}
				}
				JOINT newVegas:Left_PantLeg
				{
					OFFSET 0.663870 -9.044666 -1.108900
					CHANNELS 3 Xrotation Yrotation Zrotation
					End Site
					{
						OFFSET 1.415995 20.635357 0.000000
					}
				}
			}
		}
		JOINT newVegas:RightUpLeg
		{
			OFFSET -18.735201 -5.666702 -4.541200
			CHANNELS 3 Xrotation Yrotation Zrotation
			JOINT newVegas:RightLeg
			{
				OFFSET 0.018946 -31.938133 0.493100
				CHANNELS 3 Xrotation Yrotation Zrotation
				JOINT newVegas:RightFoot
				{
					OFFSET -0.018946 -31.938126 -4.336299
					CHANNELS 3 Xrotation Yrotation Zrotation
					JOINT newVegas:RightToeBase
					{
						OFFSET -0.943001 -26.722004 15.023500
						CHANNELS 3 Xrotation Yrotation Zrotation
						End Site
						{
							OFFSET 0.000000 30.670187 0.000000
						}
					}
				}
				JOINT newVegas:Right_PantLeg
				{
					OFFSET -0.661674 -9.044716 -1.108900
					CHANNELS 3 Xrotation Yrotation Zrotation
					End Site
					{
						OFFSET -1.415958 20.635269 0.000000
					}
				}
			}
		}
	}
	JOINT newVegas:Spine
	{
		OFFSET 0.000000 10.199997 -0.299500
		CHANNELS 3 Xrotation Yrotation Zrotation
		JOINT newVegas:Spine1
		{
			OFFSET 0.000000 11.900002 -1.516600
			CHANNELS 3 Xrotation Yrotation Zrotation
			JOINT newVegas:Spine2
			{
				OFFSET 0.000000 13.600006 -2.842500
				CHANNELS 3 Xrotation Yrotation Zrotation
				JOINT newVegas:Neck
				{
					OFFSET 0.000000 9.624100 -2.890100
					CHANNELS 3 Xrotation Yrotation Zrotation
					JOINT newVegas:Head
					{
						OFFSET 0.000000 14.068802 -1.351900
						CHANNELS 3 Xrotation Yrotation Zrotation
						JOINT newVegas:Hair_Back
						{
							OFFSET 0.000000 3.231903 -17.524799
							CHANNELS 3 Xrotation Yrotation Zrotation
							End Site
							{
								OFFSET 0.000000 19.849884 0.000000
							}
						}
						JOINT newVegas:Hair_Front
						{
							OFFSET 0.000000 31.260406 4.573800
							CHANNELS 3 Xrotation Yrotation Zrotation
							JOINT newVegas:Hair_Front1
							{
								OFFSET 0.000000 2.284103 11.993300
								CHANNELS 3 Xrotation Yrotation Zrotation
								JOINT newVegas:Hair_Front2
								{
									OFFSET 0.000000 2.284103 11.993300
									CHANNELS 3 Xrotation Yrotation Zrotation
									End Site
									{
										OFFSET 0.000000 12.208862 0.000000
									}
								}
							}
						}
						JOINT newVegas:Jowel
						{
							OFFSET 0.000000 -7.458206 6.864100
							CHANNELS 3 Xrotation Yrotation Zrotation
							End Site
							{
								OFFSET 0.000000 19.849884 0.000000
							}
						}
					}
				}
				JOINT newVegas:LeftShoulder
				{
					OFFSET 15.263000 10.923401 -0.547700
					CHANNELS 3 Xrotation Yrotation Zrotation
					JOINT newVegas:LeftArm
					{
						OFFSET 25.438599 -2.830597 -13.032500
						CHANNELS 3 Xrotation Yrotation Zrotation
						JOINT newVegas:LeftForeArm
						{
							OFFSET 29.960503 0.000000 0.000000
							CHANNELS 3 Xrotation Yrotation Zrotation
							JOINT newVegas:LeftHand
							{
								OFFSET 27.849251 0.000000 0.000000
								CHANNELS 3 Xrotation Yrotation Zrotation
								JOINT newVegas:LeftHandThumb1
								{
									OFFSET 4.487587 -3.305161 6.305391
									CHANNELS 3 Xrotation Yrotation Zrotation
									JOINT newVegas:LeftHandThumb2
									{
										OFFSET 5.480453 -3.164139 3.164143
										CHANNELS 3 Xrotation Yrotation Zrotation
										JOINT newVegas:LeftHandThumb3
										{
											OFFSET 5.159721 -2.978973 2.978967
											CHANNELS 3 Xrotation Yrotation Zrotation
											End Site
											{
												OFFSET 2.494507 5.926697 1.738678
											}
										}
									}
								}
								JOINT newVegas:LeftHandIndex1
								{
									OFFSET 18.578728 -0.527832 5.208049
									CHANNELS 3 Xrotation Yrotation Zrotation
									JOINT newVegas:LeftHandIndex2
									{
										OFFSET 3.192009 0.000000 0.000000
										CHANNELS 3 Xrotation Yrotation Zrotation
										JOINT newVegas:LeftHandIndex3
										{
											OFFSET 3.835129 0.000000 0.000000
											CHANNELS 3 Xrotation Yrotation Zrotation
											End Site
											{
												OFFSET -0.034599 3.816971 0.371180
											}
										}
									}
								}
								JOINT newVegas:LeftHandMiddle1
								{
									OFFSET 18.476105 0.000000 0.000000
									CHANNELS 3 Xrotation Yrotation Zrotation
									JOINT newVegas:LeftHandMiddle2
									{
										OFFSET 3.324875 0.000000 0.000000
										CHANNELS 3 Xrotation Yrotation Zrotation
										JOINT newVegas:LeftHandMiddle3
										{
											OFFSET 4.596550 0.000000 0.000000
											CHANNELS 3 Xrotation Yrotation Zrotation
											End Site
											{
												OFFSET 0.057701 4.578827 0.399218
											}
										}
									}
								}
								JOINT newVegas:LeftHandRing1
								{
									OFFSET 17.732719 0.121887 -4.201567
									CHANNELS 3 Xrotation Yrotation Zrotation
									JOINT newVegas:LeftHandRing2
									{
										OFFSET 2.733170 0.000000 0.000000
										CHANNELS 3 Xrotation Yrotation Zrotation
										JOINT newVegas:LeftHandRing3
										{
											OFFSET 3.178268 0.000000 0.000000
											CHANNELS 3 Xrotation Yrotation Zrotation
											End Site
											{
												OFFSET 0.119102 3.170624 0.185394
											}
										}
									}
								}
								JOINT newVegas:LeftHandPinky1
								{
									OFFSET 15.989624 -0.606689 -7.535461
									CHANNELS 3 Xrotation Yrotation Zrotation
									JOINT newVegas:LeftHandPinky2
									{
										OFFSET 2.538986 0.000000 0.000000
										CHANNELS 3 Xrotation Yrotation Zrotation
										JOINT newVegas:LeftHandPinky3
										{
											OFFSET 2.593102 0.000000 0.000000
											CHANNELS 3 Xrotation Yrotation Zrotation
											End Site
											{
												OFFSET -0.150902 2.584198 0.152708
											}
										}
									}
								}
							}
							JOINT newVegas:Left_Sleeve
							{
								OFFSET 0.267448 -0.649796 0.577675
								CHANNELS 3 Xrotation Yrotation Zrotation
								End Site
								{
									OFFSET 0.000000 15.991241 0.000000
								}
							}
							JOINT newVegas:Left_CapeC
							{
								OFFSET 15.715958 -8.608795 -6.935905
								CHANNELS 3 Xrotation Yrotation Zrotation
								JOINT newVegas:Left_CapeC1
								{
									OFFSET 0.000000 -8.688499 0.000000
									CHANNELS 3 Xrotation Yrotation Zrotation
									End Site
									{
										OFFSET 0.000000 8.688499 0.000000
									}
								}
							}
						}
						JOINT newVegas:Left_CapeB
						{
							OFFSET 26.118385 -8.608795 -7.079235
							CHANNELS 3 Xrotation Yrotation Zrotation
							JOINT newVegas:Left_CapeB1
							{
								OFFSET 0.000000 -8.688499 0.000000
								CHANNELS 3 Xrotation Yrotation Zrotation
								End Site
								{
									OFFSET 0.000000 8.688499 0.000000
								}
							}
						}
						JOINT newVegas:Left_CapeA
						{
							OFFSET 5.115639 -8.608795 -10.395809
							CHANNELS 3 Xrotation Yrotation Zrotation
							JOINT newVegas:Left_CapeA1
							{
								OFFSET 0.000000 -8.688499 0.000000
								CHANNELS 3 Xrotation Yrotation Zrotation
								End Site
								{
									OFFSET 0.000000 8.688499 0.000000
								}
							}
						}
					}
				}
				JOINT newVegas:RightShoulder
				{
					OFFSET -15.263000 10.923401 -0.547700
					CHANNELS 3 Xrotation Yrotation Zrotation
					JOINT newVegas:RightArm
					{
						OFFSET -25.438599 -2.830597 -13.032500
						CHANNELS 3 Xrotation Yrotation Zrotation
						JOINT newVegas:RightForeArm
						{
							OFFSET -29.960503 0.000000 0.000000
							CHANNELS 3 Xrotation Yrotation Zrotation
							JOINT newVegas:RightHand
							{
								OFFSET -27.849251 0.000000 0.000000
								CHANNELS 3 Xrotation Yrotation Zrotation
								JOINT newVegas:RightHandThumb1
								{
									OFFSET -4.487587 -3.305161 6.305391
									CHANNELS 3 Xrotation Yrotation Zrotation
									JOINT newVegas:RightHandThumb2
									{
										OFFSET -5.480453 -3.164139 3.164143
										CHANNELS 3 Xrotation Yrotation Zrotation
										JOINT newVegas:RightHandThumb3
										{
											OFFSET -5.159721 -2.978973 2.978967
											CHANNELS 3 Xrotation Yrotation Zrotation
											End Site
											{
												OFFSET -2.494507 5.926697 1.738678
											}
										}
									}
								}
								JOINT newVegas:RightHandIndex1
								{
									OFFSET -18.578728 -0.527832 5.208049
									CHANNELS 3 Xrotation Yrotation Zrotation
									JOINT newVegas:RightHandIndex2
									{
										OFFSET -3.192009 0.000000 0.000000
										CHANNELS 3 Xrotation Yrotation Zrotation
										JOINT newVegas:RightHandIndex3
										{
											OFFSET -3.835129 0.000000 0.000000
											CHANNELS 3 Xrotation Yrotation Zrotation
											End Site
											{
												OFFSET 0.034599 3.816971 0.371180
											}
										}
									}
								}
								JOINT newVegas:RightHandMiddle1
								{
									OFFSET -18.476105 0.000000 0.000000
									CHANNELS 3 Xrotation Yrotation Zrotation
									JOINT newVegas:RightHandMiddle2
									{
										OFFSET -3.324875 0.000000 0.000000
										CHANNELS 3 Xrotation Yrotation Zrotation
										JOINT newVegas:RightHandMiddle3
										{
											OFFSET -4.596550 0.000000 0.000000
											CHANNELS 3 Xrotation Yrotation Zrotation
											End Site
											{
												OFFSET -0.057701 4.578827 0.399218
											}
										}
									}
								}
								JOINT newVegas:RightHandRing1
								{
									OFFSET -17.732719 0.121887 -4.201567
									CHANNELS 3 Xrotation Yrotation Zrotation
									JOINT newVegas:RightHandRing2
									{
										OFFSET -2.733170 0.000000 0.000000
										CHANNELS 3 Xrotation Yrotation Zrotation
										JOINT newVegas:RightHandRing3
										{
											OFFSET -3.178268 0.000000 0.000000
											CHANNELS 3 Xrotation Yrotation Zrotation
											End Site
											{
												OFFSET -0.119102 3.170624 0.185394
											}
										}
									}
								}
								JOINT newVegas:RightHandPinky1
								{
									OFFSET -15.989624 -0.606689 -7.535461
									CHANNELS 3 Xrotation Yrotation Zrotation
									JOINT newVegas:RightHandPinky2
									{
										OFFSET -2.538986 0.000000 0.000000
										CHANNELS 3 Xrotation Yrotation Zrotation
										JOINT newVegas:RightHandPinky3
										{
											OFFSET -2.593102 0.000000 0.000000
											CHANNELS 3 Xrotation Yrotation Zrotation
											End Site
											{
												OFFSET 0.150902 2.584198 0.152708
											}
										}
									}
								}
							}
							JOINT newVegas:Right_CapeC
							{
								OFFSET -15.715958 -8.608795 -6.935905
								CHANNELS 3 Xrotation Yrotation Zrotation
								JOINT newVegas:Right_CapeC1
								{
									OFFSET 0.000000 -8.688499 0.000000
									CHANNELS 3 Xrotation Yrotation Zrotation
									End Site
									{
										OFFSET 0.000000 8.688499 0.000000
									}
								}
							}
							JOINT newVegas:Right_Sleeve
							{
								OFFSET -0.267448 -0.649994 0.577675
								CHANNELS 3 Xrotation Yrotation Zrotation
								End Site
								{
									OFFSET 0.000000 15.991302 0.000000
								}
							}
						}
						JOINT newVegas:Right_CapeA
						{
							OFFSET -5.115540 -8.608795 -10.395824
							CHANNELS 3 Xrotation Yrotation Zrotation
							JOINT newVegas:Right_CapeA1
							{
								OFFSET 0.000000 -8.688499 0.000000
								CHANNELS 3 Xrotation Yrotation Zrotation
								End Site
								{
									OFFSET 0.000000 8.688499 0.000000
								}
							}
						}
						JOINT newVegas:Right_CapeB
						{
							OFFSET -26.118187 -8.608795 -7.079266
							CHANNELS 3 Xrotation Yrotation Zrotation
							JOINT newVegas:Right_CapeB1
							{
								OFFSET 0.000000 -8.688499 0.000000
								CHANNELS 3 Xrotation Yrotation Zrotation
								End Site
								{
									OFFSET 0.000000 8.688499 0.000000
								}
							}
						}
					}
				}
				JOINT newVegas:Left_Collar
				{
					OFFSET 18.625099 8.655502 8.828100
					CHANNELS 3 Xrotation Yrotation Zrotation
					JOINT newVegas:Left_Collar1
					{
						OFFSET 14.783401 10.540405 -1.259500
						CHANNELS 3 Xrotation Yrotation Zrotation
						End Site
						{
							OFFSET 0.000000 18.199875 0.000000
						}
					}
				}
				JOINT newVegas:Collar_Back
				{
					OFFSET 0.000000 15.630707 -20.132601
					CHANNELS 3 Xrotation Yrotation Zrotation
					End Site
					{
						OFFSET 0.000000 22.523010 0.000000
					}
				}
				JOINT newVegas:Left_Peck
				{
					OFFSET 17.239599 -5.132599 25.482599
					CHANNELS 3 Xrotation Yrotation Zrotation
					End Site
					{
						OFFSET 0.000000 22.523010 0.000000
					}
				}
				JOINT newVegas:Right_Peck
				{
					OFFSET -17.239599 -5.132202 25.482599
					CHANNELS 3 Xrotation Yrotation Zrotation
					End Site
					{
						OFFSET 0.000000 22.523010 0.000000
					}
				}
				JOINT newVegas:Right_Collar
				{
					OFFSET -18.625099 8.655792 8.828100
					CHANNELS 3 Xrotation Yrotation Zrotation
					JOINT newVegas:Right_Collar1
					{
						OFFSET -14.783401 10.539993 -1.259500
						CHANNELS 3 Xrotation Yrotation Zrotation
						End Site
						{
							OFFSET 0.000000 18.199631 0.000000
						}
					}
				}
			}
		}
		JOINT newVegas:Belly
		{
			OFFSET 0.000000 -6.540398 9.014299
			CHANNELS 3 Xrotation Yrotation Zrotation
			End Site
			{
				OFFSET 0.000000 11.566666 0.000000
			}
		}
	}
	JOINT newVegas:ElvisFacialAnim_Joint
	{
		OFFSET 1.000000 -95.330101 -8.825800
		CHANNELS 3 Xrotation Yrotation Zrotation
		End Site
		{
			OFFSET 0.000000 35.315800 0.000000
		}
	}
}
MOTION
Frames: 4
Frame Time: 0.033333
-4.620192 81.350494 458.440277 -14.716271 -39.936652 -14.452214 0.000000 0.000000 0.000000 -29.707727 30.610531 27.533684 102.789532 -9.874035 2.217010 -23.018064 19.906163 8.781846 0.000002 -0.000000 0.000000 0.000002 0.000001 0.000001 -17.195420 3.705282 11.603337 70.291533 9.579976 -4.637558 -41.235385 -2.290750 -6.615157 0.000000 -0.000000 0.000000 0.000001 0.000001 -0.000001 14.280852 6.416672 9.628157 0.714616 1.991924 2.124568 1.223676 1.683594 2.048063 -1.672966 -0.514905 0.178934 -1.672964 -0.514903 0.178939 -0.000000 -0.000003 -0.000001 -1.672966 -0.514893 0.178935 -1.672968 -0.514894 0.178933 0.000001 -0.000002 -0.000000 -0.000000 -0.000003 0.000000 -14.392549 -7.071594 -13.265471 -11.987706 27.132667 -66.802249 -0.000046 -95.161952 -0.000055 -80.357886 -11.705854 0.337045 6.096058 14.786183 4.620219 19.473185 -1.474882 7.636904 0.000001 -0.000002 -0.000010 15.661118 16.202851 -55.457424 2.447159 4.761838 -54.378630 0.000001 0.000003 -0.000000 14.011224 12.460375 -65.612102 3.779526 5.473274 -69.232334 -0.000002 0.000001 0.000001 8.050193 9.157215 -72.403953 4.134388 5.594380 -72.910780 0.000001 -0.000001 -0.000001 -0.436323 7.667303 -84.868331 3.093467 5.162459 -61.840082 0.000001 -0.000005 0.000001 0.000001 -0.000001 -0.000000 0.000001 -0.000001 -0.000000 0.000001 -0.000000 -0.000000 0.000001 0.000000 0.000000 0.000001 -0.000001 0.000001 0.000001 0.000000 0.000000 0.000002 0.000001 0.000001 0.802575 -12.863072 -19.969540 9.617856 -16.216723 0.044696 0.000003 50.490377 -0.000001 -63.512782 12.911212 -3.895393 55.217162 44.313390 -11.405317 35.576369 -25.993255 8.537816 0.000001 -0.000001 0.000001 -10.460950 12.524078 34.353820 2.422110 -4.086833 61.293298 -0.000001 0.000001 -0.000001 -2.245247 1.679181 24.962629 5.109865 -4.635148 95.584481 -0.000000 -0.000003 -0.000001 1.477800 -5.841638 33.392587 4.067925 -4.619812 82.723174 -0.000002 0.000002 0.000001 0.702302 -4.974806 49.066068 2.451072 -4.102514 61.699250 -0.000000 -0.000002 -0.000000 -0.000001 0.000001 -0.000000 -0.000001 0.000001 0.000000 -0.000001 0.000001 -0.000000 0.000000 0.000003 -0.000000 0.000000 0.000004 -0.000000 0.000000 0.000003 -0.000000 0.000000 0.000003 -0.000001 -0.000000 0.000001 -0.000001 -0.000000 0.000001 -0.000001 -0.000000 0.000001 -0.000001 -0.000000 0.000001 -0.000001 -0.000000 0.000001 -0.000001 -0.000000 0.000001 -0.000001 -0.000000 0.000001 -0.000001 0.000000 -0.000003 0.000000 0.000000 0.000000 0.000000 
-4.912556 82.374359 468.169556 -14.652750 -41.156541 -13.186330 0.000000 -0.000000 -0.000001 -40.421592 28.401851 33.374217 101.612861 -10.049878 2.454433 -33.116766 18.388210 9.943534 -0.000001 -0.000001 -0.000001 0.000003 -0.000001 0.000000 -8.555053 4.740060 5.613908 67.114566 9.511301 -6.356912 -42.594433 -2.180005 -6.858376 -0.000000 -0.000002 -0.000000 0.000002 -0.000001 0.000001 11.787397 7.890188 9.139007 1.153181 4.292480 1.069842 1.568367 4.002045 0.863386 -1.269062 -0.929492 0.100677 -1.269078 -0.929495 0.100647 -0.000000 0.000000 -0.000001 -1.268958 -0.929661 0.100709 -1.269059 -0.929352 0.100650 -0.000000 0.000001 -0.000001 -0.000000 0.000000 0.000000 -13.134089 -10.388497 -13.434174 -16.557823 24.404003 -67.493027 0.002387 -88.514088 0.002395 -77.314326 -11.922288 -0.559925 6.097898 14.785222 4.621488 19.473178 -1.474883 7.636912 -0.000000 0.000000 -0.000004 15.661137 16.202850 -55.457431 2.447158 4.761850 -54.378619 0.000000 0.000001 0.000005 14.011230 12.460389 -65.612102 3.779542 5.473279 -69.232334 0.000002 -0.000001 0.000001 8.050186 9.157194 -72.403933 4.134396 5.594399 -72.910787 -0.000001 -0.000001 0.000001 -0.436317 7.667307 -84.868317 3.093458 5.162463 -61.840089 0.000001 -0.000003 0.000001 0.000000 0.000004 -0.000000 0.000000 0.000004 -0.000000 0.000000 0.000004 -0.000001 0.000000 -0.000003 0.000000 0.000000 -0.000003 0.000001 0.000000 -0.000003 0.000000 0.000000 -0.000002 0.000000 2.050065 -9.387759 -23.590124 -20.272503 -24.729390 -11.213055 -0.000008 54.827851 0.000009 -44.054672 24.847545 -27.974437 46.245903 43.725327 -1.431965 39.742501 -24.046682 10.213788 0.000001 -0.000002 -0.000001 -12.801100 11.084739 41.876180 2.188729 -3.950397 57.964079 0.000001 0.000000 -0.000002 -3.294474 1.853791 31.804298 4.439008 -4.652056 87.312145 -0.000003 -0.000001 -0.000001 0.346981 -4.346180 40.366671 3.798112 -4.577417 79.358855 -0.000000 0.000001 0.000002 -1.556386 -3.446133 53.538564 2.427058 -4.089511 61.362563 -0.000002 0.000001 0.000003 0.000000 0.000000 -0.000001 0.000000 0.000000 -0.000002 -0.000000 0.000000 -0.000002 0.000001 -0.000003 0.000002 0.000001 -0.000002 0.000002 0.000001 -0.000003 0.000002 0.000001 -0.000002 0.000001 0.000000 0.000000 -0.000001 0.000000 0.000000 -0.000001 0.000000 0.000000 -0.000001 0.000000 0.000000 -0.000001 0.000000 0.000000 -0.000001 0.000000 0.000000 -0.000001 0.000000 0.000000 -0.000001 -0.000000 0.000000 0.000000 0.000000 -0.000000 -0.000001 
-4.968156 83.771637 477.990448 -13.501241 -40.485219 -11.160731 -0.000000 0.000002 -0.000000 -50.406157 26.341774 35.669908 93.134315 -9.488245 2.730828 -34.156816 14.831950 12.295013 0.000000 0.000000 0.000000 0.000001 0.000001 0.000001 0.515341 3.444403 -1.011087 59.959348 8.955344 -8.645974 -40.193437 -3.022211 -3.127631 -0.000000 0.000000 -0.000000 0.000004 -0.000000 0.000000 9.105405 8.846483 8.179128 1.523475 6.245840 0.480260 1.892842 5.960730 0.116921 -0.800334 -1.194654 -0.231847 -0.800334 -1.194652 -0.231843 0.000000 -0.000001 0.000001 -0.800334 -1.194657 -0.231842 -0.800335 -1.194657 -0.231843 -0.000000 -0.000000 -0.000000 0.000000 -0.000001 0.000000 -12.193516 -9.495230 -14.584766 -19.510191 16.511825 -69.131691 -0.000011 -80.039046 0.000005 -74.682156 -13.652007 -2.717151 6.099804 14.784250 4.622532 19.473190 -1.474885 7.636907 -0.000000 0.000002 -0.000001 15.661132 16.202862 -55.457417 2.447181 4.761829 -54.378630 -0.000000 0.000003 -0.000002 14.011238 12.460390 -65.612088 3.779539 5.473264 -69.232321 0.000003 0.000002 0.000001 8.050178 9.157206 -72.403933 4.134398 5.594389 -72.910774 -0.000004 -0.000002 -0.000001 -0.436332 7.667318 -84.868324 3.093447 5.162455 -61.840082 0.000001 -0.000002 0.000001 -0.000000 -0.000000 0.000001 -0.000000 -0.000000 0.000001 -0.000000 0.000000 0.000000 0.000001 -0.000005 0.000000 0.000001 -0.000006 0.000000 0.000001 -0.000005 0.000000 0.000001 -0.000006 0.000000 3.043698 -7.430313 -24.723079 -47.350440 -19.616141 -24.792349 0.000003 49.722278 0.000004 -21.519739 24.088182 -43.840829 44.318820 43.956529 3.597847 42.501354 -21.952788 9.619636 0.000003 0.000000 -0.000002 -13.198351 10.601025 43.509937 1.968587 -3.804127 54.709330 0.000001 -0.000001 0.000002 -3.511650 2.088831 32.266859 3.831789 -4.583593 79.780769 0.000000 -0.000003 0.000000 -0.270829 -3.659499 41.039765 3.442880 -4.496407 74.870293 0.000000 -0.000001 -0.000001 -2.041517 -3.118896 53.843385 2.390275 -4.069266 60.845982 -0.000001 -0.000000 -0.000000 -0.000000 -0.000001 0.000002 -0.000000 0.000000 0.000000 -0.000000 0.000000 -0.000000 0.000004 -0.000002 -0.000003 0.000004 -0.000001 -0.000002 0.000004 -0.000002 -0.000003 0.000004 -0.000001 -0.000001 -0.000000 -0.000001 -0.000000 -0.000000 -0.000001 -0.000000 -0.000000 -0.000001 -0.000000 -0.000000 -0.000001 -0.000000 -0.000000 -0.000001 -0.000000 -0.000000 -0.000001 -0.000000 -0.000000 -0.000001 -0.000000 -0.000000 -0.000001 0.000000 -0.000000 0.000002 -0.000000 
-4.999535 85.059509 488.639496 -11.939621 -38.622643 -9.047666 -0.000000 -0.000001 -0.000000 -54.548899 22.040870 36.076694 74.729277 -10.553475 2.745300 -35.630829 14.933999 2.527885 -0.000000 0.000000 -0.000000 -0.000001 0.000001 0.000001 7.971703 0.260382 -7.379914 50.452842 7.320034 -10.740099 -30.890015 -3.028487 4.466107 -0.000001 0.000000 0.000000 -0.000002 -0.000002 -0.000001 5.392718 10.221023 6.327060 2.550143 8.317693 0.311891 2.984192 7.967323 -0.465502 -0.094079 -1.199168 -0.549068 -0.094084 -1.199167 -0.549086 0.000000 -0.000001 -0.000000 -0.094149 -1.199208 -0.549063 -0.094010 -1.199156 -0.549072 0.000000 0.000001 -0.000000 0.000000 -0.000001 -0.000000 -10.921420 -7.077159 -16.495098 -21.279082 3.720547 -71.092529 0.000101 -71.921796 0.000107 -73.334423 -17.355970 -4.590156 6.102303 14.783109 4.623546 19.473190 -1.474885 7.636910 0.000003 -0.000004 -0.000003 15.661125 16.202846 -55.457417 2.447176 4.761832 -54.378626 -0.000001 0.000004 -0.000002 14.011227 12.460377 -65.612081 3.779533 5.473282 -69.232314 -0.000000 0.000000 0.000003 8.050194 9.157206 -72.403946 4.134370 5.594398 -72.910774 0.000000 -0.000001 -0.000001 -0.436329 7.667320 -84.868290 3.093465 5.162460 -61.840082 0.000003 -0.000004 0.000002 -0.000000 -0.000000 -0.000000 -0.000000 -0.000000 -0.000000 -0.000000 0.000000 -0.000001 0.000001 -0.000005 0.000000 0.000001 -0.000006 0.000000 0.000001 -0.000005 0.000000 0.000001 -0.000006 0.000000 3.672771 -5.347635 -23.384145 -71.082182 -7.576480 -33.992677 0.000002 45.094958 -0.000015 1.272331 24.539399 -57.485010 43.884447 42.070847 9.518700 43.141288 -20.498641 4.318886 0.000001 -0.000002 -0.000001 -14.668282 9.611710 48.094268 1.704874 -3.603425 50.628733 -0.000003 -0.000005 0.000007 -4.162704 2.141589 35.783699 3.186373 -4.419299 71.571216 0.000004 -0.000001 0.000005 -0.929021 -3.023531 42.471219 2.823530 -4.281731 66.790603 0.000001 -0.000004 0.000000 -3.000770 -2.629072 55.477501 2.315270 -4.026614 59.783225 -0.000000 0.000001 0.000002 0.000001 -0.000001 0.000000 0.000000 -0.000003 0.000001 0.000001 -0.000001 -0.000001 0.000001 0.000003 -0.000003 0.000001 0.000003 -0.000006 0.000001 0.000003 -0.000003 0.000002 0.000003 -0.000004 -0.000000 0.000000 -0.000001 -0.000000 0.000000 -0.000001 -0.000000 0.000000 -0.000001 -0.000000 0.000000 -0.000001 -0.000000 0.000000 -0.000001 -0.000000 0.000000 -0.000001 -0.000000 0.000000 -0.000001 -0.000000 -0.000001 -0.000000 -0.000000 -0.000001 -0.000000 
